<svg id='Knitting_24' width='24' height='24' viewBox='0 0 24 24' xmlns='http://www.w3.org/2000/svg' xmlns:xlink='http://www.w3.org/1999/xlink'><rect width='24' height='24' stroke='none' fill='#000000' opacity='0'/>


<g transform="matrix(0.42 0 0 0.42 12 12)" >
<g style="" >
<g transform="matrix(1 0 0 1 -1.45 -12.5)" >
<path style="stroke: none; stroke-width: 1; stroke-dasharray: none; stroke-linecap: butt; stroke-dashoffset: 0; stroke-linejoin: miter; stroke-miterlimit: 4; fill: rgb(61,217,235); fill-rule: nonzero; opacity: 1;" transform=" translate(-22.55, -11.5)" d="M 5 11.5 C 6.5 10.9 7.9 10.45 9.4 10 L 13.8 10 L 35.7 10 C 37.2 10.45 38.6 10.9 40.1 11.5 C 38.6 12.1 37.2 12.55 35.7 13 L 13.8 13 L 9.4 13 C 7.9 12.55 6.5 12.1 5 11.5 z" stroke-linecap="round" />
</g>
<g transform="matrix(1 0 0 1 -17 -13)" >
<circle style="stroke: none; stroke-width: 1; stroke-dasharray: none; stroke-linecap: butt; stroke-dashoffset: 0; stroke-linejoin: miter; stroke-miterlimit: 4; fill: rgb(61,217,235); fill-rule: nonzero; opacity: 1;" cx="0" cy="0" r="3" />
</g>
<g transform="matrix(1 0 0 1 -1 16.91)" >
<path style="stroke: none; stroke-width: 1; stroke-dasharray: none; stroke-linecap: butt; stroke-dashoffset: 0; stroke-linejoin: miter; stroke-miterlimit: 4; fill: rgb(245,83,118); fill-rule: nonzero; opacity: 1;" transform=" translate(-23, -40.91)" d="M 31 43 L 29 41 L 27 43 L 25 41 L 23 43 L 21 41 L 19 43 L 17 41 L 15 43 L 12 40 C 12 40 12.438 39.564 12.3 39.3 C 12.037 38.799 13.3 38.9 13.700000000000001 39.3 L 15.000000000000002 40.599999999999994 L 16.3 39.3 C 16.687 38.913 17.313000000000002 38.913 17.7 39.3 L 19 40.599999999999994 L 20.3 39.3 C 20.687 38.913 21.313000000000002 38.913 21.7 39.3 L 23 40.599999999999994 L 24.3 39.3 C 24.687 38.913 25.313000000000002 38.913 25.7 39.3 L 27 40.599999999999994 L 28.3 39.3 C 28.687 38.913 29.313000000000002 38.913 29.7 39.3 L 31 40.599999999999994 L 32.3 39.3 C 32.699999999999996 38.9 32.599999999999994 38.599999999999994 33 39 C 33.400000000000006 39.400000000000006 34 40 34 40 L 31 43 z" stroke-linecap="round" />
</g>
<g transform="matrix(1 0 0 1 -1 3)" >
<path style="stroke: none; stroke-width: 1; stroke-dasharray: none; stroke-linecap: butt; stroke-dashoffset: 0; stroke-linejoin: miter; stroke-miterlimit: 4; fill: rgb(245,83,118); fill-rule: nonzero; opacity: 1;" transform=" translate(-23, -27)" d="M 26 13 L 12 13 L 12 40 L 13.596 40.82 L 23 41 L 32.337 40.753 L 34 40 L 34 21.4 L 26 13 z" stroke-linecap="round" />
</g>
<g transform="matrix(1 0 0 1 -1 12.04)" >
<polygon style="stroke: none; stroke-width: 1; stroke-dasharray: none; stroke-linecap: butt; stroke-dashoffset: 0; stroke-linejoin: miter; stroke-miterlimit: 4; fill: rgb(235,0,0); fill-rule: nonzero; opacity: 1;" points="11,1.76 11,-2.15 9.57,-0.95 7.17,-2.95 4.78,-0.96 2.39,-2.96 0,-0.96 -2.39,-2.96 -4.78,-0.96 -7.17,-2.96 -9.56,-0.96 -10.99,-2.15 -11,-2.13 -11,1.75 -9.56,2.96 -7.17,0.96 -4.78,2.96 -2.39,0.96 0,2.96 2.39,0.95 4.78,2.95 7.17,0.95 9.57,2.95 " />
</g>
<g transform="matrix(1 0 0 1 -1 4.04)" >
<polygon style="stroke: none; stroke-width: 1; stroke-dasharray: none; stroke-linecap: butt; stroke-dashoffset: 0; stroke-linejoin: miter; stroke-miterlimit: 4; fill: rgb(235,0,0); fill-rule: nonzero; opacity: 1;" points="11,1.76 11,-2.15 9.57,-0.95 7.17,-2.95 4.78,-0.96 2.39,-2.96 0,-0.96 -2.39,-2.96 -4.78,-0.96 -7.17,-2.96 -9.56,-0.96 -10.99,-2.15 -11,-2.13 -11,1.75 -9.56,2.96 -7.17,0.96 -4.78,2.96 -2.39,0.96 0,2.96 2.39,0.95 4.78,2.95 7.17,0.95 9.57,2.95 " />
</g>
<g transform="matrix(1 0 0 1 -1 -3.96)" >
<polygon style="stroke: none; stroke-width: 1; stroke-dasharray: none; stroke-linecap: butt; stroke-dashoffset: 0; stroke-linejoin: miter; stroke-miterlimit: 4; fill: rgb(235,0,0); fill-rule: nonzero; opacity: 1;" points="11,1.76 11,-2.15 9.57,-0.95 7.17,-2.95 4.78,-0.96 2.39,-2.96 0,-0.96 -2.39,-2.96 -4.78,-0.96 -7.17,-2.96 -9.56,-0.96 -10.99,-2.15 -11,-2.13 -11,1.75 -9.56,2.96 -7.17,0.96 -4.78,2.96 -2.39,0.96 0,2.96 2.39,0.95 4.78,2.95 7.17,0.95 9.57,2.95 " />
</g>
<g transform="matrix(1 0 0 1 6.55 -7.5)" >
<path style="stroke: none; stroke-width: 1; stroke-dasharray: none; stroke-linecap: butt; stroke-dashoffset: 0; stroke-linejoin: miter; stroke-miterlimit: 4; fill: rgb(61,217,235); fill-rule: nonzero; opacity: 1;" transform=" translate(-30.55, -16.5)" d="M 42.96 28.91 C 41.475 28.274 40.167 27.602 38.788000000000004 26.859 L 35.67700000000001 23.748 L 20.191 8.262 C 19.448999999999998 6.883000000000001 18.776999999999997 5.575000000000001 18.14 4.090000000000001 C 19.625 4.726000000000001 20.933 5.398000000000001 22.312 6.141000000000001 L 37.798 21.627000000000002 L 40.909 24.738000000000003 C 41.652 26.117 42.323 27.425 42.96 28.91 z" stroke-linecap="round" />
</g>
<g transform="matrix(1 0 0 1 17 3)" >
<circle style="stroke: none; stroke-width: 1; stroke-dasharray: none; stroke-linecap: butt; stroke-dashoffset: 0; stroke-linejoin: miter; stroke-miterlimit: 4; fill: rgb(61,217,235); fill-rule: nonzero; opacity: 1;" cx="0" cy="0" r="3" />
</g>
<g transform="matrix(1 0 0 1 1.55 -12.5)" >
<polygon style="stroke: none; stroke-width: 1; stroke-dasharray: none; stroke-linecap: butt; stroke-dashoffset: 0; stroke-linejoin: miter; stroke-miterlimit: 4; fill: rgb(0,179,215); fill-rule: nonzero; opacity: 1;" points="-3.62,-1.5 0.62,-1.5 3.62,1.5 -0.62,1.5 " />
</g>
</g>
</g>
</svg>